<svg width="48" height="80" viewBox="0 0 63 103" fill="none" xmlns="http://www.w3.org/2000/svg">
<path class="logo-mdo" d="M2 45.9587V1L19.4105 35.3802L38.3636 1V44.8568M32.6336 19.7328C33.9918 19.6193 49.1625 19.7328 53.5702 19.7328C57.978 19.7328 61.2837 24.3609 61.2837 28.1074C61.2837 31.854 61.7245 53.011 61.2837 56.3168C60.843 59.6226 55.1129 62.2672 53.5702 62.2672C52.0275 62.2672 32.6336 62.2672 32.6336 62.2672V19.7328ZM26.022 57.6391C22.4959 58.0799 17.6474 62.0468 17.6474 69.0992C17.6474 76.1515 17.2066 78.5758 17.6474 88.7135C18.0882 98.8512 23.8182 99.5124 26.4628 100.394C29.1074 101.275 36.3802 101.055 38.8044 100.614C41.2287 100.174 48.281 98.4105 48.7218 90.4766C49.1625 82.5427 49.1625 76.5923 48.7218 68.6584C48.281 60.7245 42.7714 58.0799 40.5675 57.6391C38.3636 57.1983 29.5482 57.1983 26.022 57.6391Z" stroke="#444444" stroke-width="3"/>
</svg>
