<svg width="317" height="526" viewBox="0 0 317 526" fill="none" xmlns="http://www.w3.org/2000/svg">
<path d="M2 237.033V1L93.6192 181.496L193.357 1V231.248M163.203 99.3471C170.351 98.7511 250.184 99.3471 273.378 99.3471C296.573 99.3471 313.969 123.645 313.969 143.314C313.969 162.983 316.289 274.058 313.969 291.413C311.65 308.769 281.496 322.653 273.378 322.653C265.26 322.653 163.203 322.653 163.203 322.653V99.3471ZM128.411 298.355C109.855 300.669 84.3413 321.496 84.3413 358.521C84.3413 395.545 82.0218 408.273 84.3413 461.496C86.6608 514.719 116.814 518.19 130.731 522.818C144.648 527.446 182.919 526.289 195.676 523.975C208.433 521.661 245.545 512.405 247.864 470.752C250.184 429.099 250.184 397.86 247.864 356.207C245.545 314.554 216.551 300.669 204.954 298.355C193.357 296.041 146.967 296.041 128.411 298.355Z" stroke="white" stroke-opacity="0.3" stroke-width="3"/>
</svg>
