<svg width="538" height="475" viewBox="0 0 538 475" fill="none" xmlns="http://www.w3.org/2000/svg">
<path class="symbol-move-biggest" d="M373.644 150.116C358.94 130.66 338.953 112.163 325.397 101.424C311.841 90.6857 272.119 75.1227 254.062 71.1825C236.005 67.2423 195.032 68.8959 181.205 70.5525C167.378 72.2091 128.206 84.2266 113.36 92.5159C98.5133 100.805 67.2922 127.332 50.9174 145.571C34.5425 163.809 19.4591 195.727 13.0727 215.21C6.68619 234.693 0.400468 275.218 2.59239 294.08C4.78431 312.942 14.1564 353.027 23.2601 367.982C32.3637 382.936 43.5678 400.67 53.8948 411.425C64.2219 422.179 70.4784 426.841 90.3365 441.145C110.195 455.449 132.991 461.67 132.991 461.67C132.991 461.67 153.869 469.341 185.753 471.625C217.638 473.908 214.375 472.458 242.547 467.542C270.719 462.626 303.659 444.071 303.659 444.071C303.659 444.071 328.102 428.528 345.887 412.155C363.672 395.783 368.02 389.565 379.656 369.047C391.291 348.528 400.403 325.086 403.496 310.966C406.588 296.845 410.616 272.667 409.953 243.857C409.289 215.046 388.348 169.571 373.644 150.116ZM373.644 150.116L454.743 87.6025L535.843 25.0891M390.086 2.35697L517.632 174.368" stroke="#EF4358" stroke-opacity="0.4" stroke-width="3" stroke-linecap="round"/>
</svg>
