<svg width="54" height="79" viewBox="0 0 54 79" fill="none" xmlns="http://www.w3.org/2000/svg">
<path class="symbol-move-small" d="M20.3153 52.2886C23.2325 53.0253 26.584 53.2619 28.7177 53.2484C30.8513 53.235 35.8752 51.6653 37.917 50.6501C39.9588 49.6349 43.7736 46.3121 44.9762 45.0849C46.1788 43.8578 49.0201 39.6768 49.8086 37.7327C50.5971 35.7887 51.553 30.8254 51.7204 27.806C51.8877 24.7866 50.8745 20.5506 49.9846 18.1828C49.0947 15.8149 46.5704 11.43 44.903 9.78431C43.2356 8.13858 39.2385 5.00505 37.2078 4.26904C35.177 3.53302 32.7296 2.69174 30.9054 2.45432C29.0813 2.21689 28.1193 2.25142 25.1039 2.40841C22.0886 2.56541 19.4147 3.72712 19.4147 3.72712C19.4147 3.72712 16.8134 4.60102 13.569 6.84332C10.3246 9.08562 10.7506 8.97326 8.41933 11.6216C6.08808 14.2699 4.35128 18.599 4.35128 18.599C4.35128 18.599 3.19937 21.982 2.75227 24.9308C2.30518 27.8795 2.36686 28.8135 2.83164 31.6864C3.29642 34.5592 4.22976 37.5185 5.02251 39.116C5.81526 40.7136 7.29459 43.3511 9.58312 46.0721C11.8717 48.7932 17.3981 51.5519 20.3153 52.2886ZM20.3153 52.2886L17.3387 64.5661L14.362 76.8437M30.1427 67.7762L4.58744 61.0732" stroke="#EF4358" stroke-opacity="0.4" stroke-width="3" stroke-linecap="round"/>
</svg>
