<svg width="81" height="91" viewBox="0 0 81 91" fill="none" xmlns="http://www.w3.org/2000/svg">
<path class="symbol-move-normal" d="M46.1593 56.7397C48.7649 55.2353 51.3336 53.0695 52.8546 51.5731C54.3755 50.0767 56.8851 45.4501 57.6421 43.2992C58.3992 41.1483 58.8199 36.1067 58.8273 34.3886C58.8348 32.6704 57.9592 27.6917 57.1701 25.7479C56.381 23.8041 53.608 19.5781 51.6241 17.2959C49.6401 15.0137 45.9616 12.6815 43.6734 11.6033C41.3851 10.525 36.519 9.13911 34.1763 9.12061C31.8336 9.1021 26.7832 9.63991 24.8138 10.5271C22.8445 11.4142 20.5028 12.5163 19.029 13.6171C17.5552 14.718 16.8893 15.4131 14.836 17.6268C12.7827 19.8406 11.6743 22.5371 11.6743 22.5371C11.6743 22.5371 10.4175 24.9765 9.65304 28.8456C8.88853 32.7146 9.11576 32.3372 9.28913 35.8612C9.4625 39.3851 11.2334 43.7004 11.2334 43.7004C11.2334 43.7004 12.7646 46.9295 14.4987 49.356C16.2328 51.7825 16.9279 52.4094 19.2631 54.1461C21.5983 55.8827 24.3299 57.3548 26.0117 57.9483C27.6935 58.5417 30.5924 59.4025 34.1299 59.7595C37.6675 60.1164 43.5536 58.244 46.1593 56.7397ZM46.1593 56.7397L52.5796 67.6198L59 78.5M64 61L41 74" stroke="#EF4358" stroke-opacity="0.4" stroke-width="3" stroke-linecap="round"/>
</svg>
